<svg width="19" height="19" viewBox="0 0 19 19" fill="none" xmlns="http://www.w3.org/2000/svg">
<path d="M9.50033 7.125C10.1302 7.125 10.7343 7.37522 11.1797 7.82062C11.6251 8.26602 11.8753 8.87011 11.8753 9.5C11.8753 10.1299 11.6251 10.734 11.1797 11.1794C10.7343 11.6248 10.1302 11.875 9.50033 11.875C8.87044 11.875 8.26635 11.6248 7.82095 11.1794C7.37555 10.734 7.12533 10.1299 7.12533 9.5C7.12533 8.87011 7.37555 8.26602 7.82095 7.82062C8.26635 7.37522 8.87044 7.125 9.50033 7.125ZM9.50033 3.5625C13.4587 3.5625 16.8391 6.02458 18.2087 9.5C16.8391 12.9754 13.4587 15.4375 9.50033 15.4375C5.54199 15.4375 2.16158 12.9754 0.791992 9.5C2.16158 6.02458 5.54199 3.5625 9.50033 3.5625ZM2.51783 9.5C3.15769 10.8065 4.15128 11.9073 5.38562 12.6772C6.61997 13.4471 8.04556 13.8552 9.50033 13.8552C10.9551 13.8552 12.3807 13.4471 13.615 12.6772C14.8494 11.9073 15.843 10.8065 16.4828 9.5C15.843 8.19351 14.8494 7.09274 13.615 6.32284C12.3807 5.55294 10.9551 5.14479 9.50033 5.14479C8.04556 5.14479 6.61997 5.55294 5.38562 6.32284C4.15128 7.09274 3.15769 8.19351 2.51783 9.5Z" fill="#FEFEFE"/>
</svg>
